# xmcd
#
# Track frame offsets: 
#        183
#        14070
#        28620
#        43920
#        58258
#        74020
#        86483
#        101958
#        130895
#        146833
#        163008
#        178358
#        196855
#
# Disc length: 2824 seconds
#
# Revision: 22
# Processed by: cddbd v1.5.2PL0 Copyright (c) Steve Scherf et al.
# Submitted via: ExactAudioCopy v1.0b1
#
DISCID=cd0b060d
DTITLE=Various Artist - James Brown's Funky People
DYEAR=1988
DGENRE=Funk
TTITLE0=The JBs - Gimme Some More
TTITLE1=The JBs - Pass The Peas
TTITLE2=Lyn Collins - Think (About It)
TTITLE3=The JBs - Givin' Up Food For Funk (Part 1)
TTITLE4=Lyn Collins - Mama Feelgood
TTITLE5=The JBs - Hot Pants Road
TTITLE6=Lyn Collins - Rock Me Again and Again and Again and Again and Again and 
TTITLE6=Again
TTITLE7=Fred Wesley and The JBs - Damn Right, I Am Somebody (Parts 1 and 2
TTITLE7=)
TTITLE8=Lyn Collins - Take Me Just As I Am
TTITLE9=Fred Wesley and The JBs - If You Don't Get It The First Time, Ba
TTITLE9=ck Up And Try It Again, Party
TTITLE10=Maceo and The Macks - Parrty (Part 1)
TTITLE11=Fred and The New JBs - (It's Not The Express) It's The JBs Mona
TTITLE11=urail (Part 1)
TTITLE12=Fred Wesley and The JBs - Same Beat (Part 1)
EXTD=
EXTT0=
EXTT1=
EXTT2=
EXTT3=
EXTT4=
EXTT5=
EXTT6=
EXTT7=
EXTT8=
EXTT9=
EXTT10=
EXTT11=
EXTT12=
PLAYORDER=
